<svg height="200mm" viewBox="0 0 200 200" width="200mm" xmlns="http://www.w3.org/2000/svg"><circle cx="99.21875" cy="99.21875" r="99.21875" stroke-width=".420194"/><path d="m99.218749 185.20834a85.994147 85.994583 0 0 1 -74.468552-42.9923 85.994147 85.994583 0 0 1 0-85.994582 85.994147 85.994583 0 0 1 74.468552-42.992291v85.994583z" fill="#f2ece6" stroke-width=".313264"/><path d="m99.218749 13.229167a48.947914 85.989581 0 0 1 48.947921 85.989581 48.947914 85.989581 0 0 1 -48.947921 85.989582v-85.989582z" fill="#a6a29e" stroke-width=".233602"/><path d="m98.954166 13.229167a29.368746 85.989583 0 0 1 29.368754 85.989583 29.368746 85.989583 0 0 1 -29.368754 85.98959v-85.98959z" fill="#f2ece6" stroke-width=".180949"/></svg>