<?xml version="1.0" encoding="UTF-8"?>
<svg width="200mm" height="200mm" version="1.1" viewBox="0 0 200 200" xmlns="http://www.w3.org/2000/svg" xmlns:cc="http://creativecommons.org/ns#" xmlns:dc="http://purl.org/dc/elements/1.1/" xmlns:rdf="http://www.w3.org/1999/02/22-rdf-syntax-ns#">
 <metadata>
  <rdf:RDF>
   <cc:Work rdf:about="">
    <dc:format>image/svg+xml</dc:format>
    <dc:type rdf:resource="http://purl.org/dc/dcmitype/StillImage"/>
    <dc:title/>
   </cc:Work>
  </rdf:RDF>
 </metadata>
 <circle cx="99.22" cy="99.22" r="99.22" stroke-width=".4202"/>
 <path d="m101.6 185.2a88.34 85.99 0 0 1-76.5-42.99 88.34 85.99 0 0 1 0-85.99 88.34 85.99 0 0 1 76.5-42.99v85.99z" fill="#f2ece6" stroke-width=".3175"/>
 <path d="m101.6 13.23a63.8 85.99 0 0 1 63.8 85.99 63.8 85.99 0 0 1-63.8 85.99v-85.99z" fill="#a6a29e" stroke-width=".2667"/>
 <path d="m100.6 13.23a46.3 85.99 0 0 1 46.3 85.99 46.3 85.99 0 0 1-46.3 85.99v-85.99z" fill="#f2ece6" stroke-width=".2272"/>
</svg>
