<?xml version="1.0" encoding="UTF-8" standalone="no"?>
<svg
   xmlns:dc="http://purl.org/dc/elements/1.1/"
   xmlns:cc="http://creativecommons.org/ns#"
   xmlns:rdf="http://www.w3.org/1999/02/22-rdf-syntax-ns#"
   xmlns:svg="http://www.w3.org/2000/svg"
   xmlns="http://www.w3.org/2000/svg"
   xmlns:sodipodi="http://sodipodi.sourceforge.net/DTD/sodipodi-0.dtd"
   xmlns:inkscape="http://www.inkscape.org/namespaces/inkscape"
   inkscape:version="1.0 (4035a4f, 2020-05-01)"
   sodipodi:docname="logo.svg"
   id="svg22"
   viewBox="0 0 200 200"
   version="1.1"
   height="200mm"
   width="200mm">
  <defs
     id="defs26" />
  <sodipodi:namedview
     inkscape:current-layer="svg22"
     inkscape:window-maximized="0"
     inkscape:window-y="0"
     inkscape:window-x="0"
     inkscape:cy="425.34939"
     inkscape:cx="539.47248"
     inkscape:zoom="0.59598064"
     showgrid="false"
     id="namedview24"
     inkscape:window-height="900"
     inkscape:window-width="1440"
     inkscape:pageshadow="2"
     inkscape:pageopacity="0"
     guidetolerance="10"
     gridtolerance="10"
     objecttolerance="10"
     borderopacity="1"
     bordercolor="#666666"
     pagecolor="#ffffff" />
  <metadata
     id="metadata10">
    <rdf:RDF>
      <cc:Work
         rdf:about="">
        <dc:format>image/svg+xml</dc:format>
        <dc:type
           rdf:resource="http://purl.org/dc/dcmitype/StillImage" />
        <dc:title />
      </cc:Work>
    </rdf:RDF>
  </metadata>
  <circle
     id="circle12"
     stroke-width="0.4235"
     r="100"
     cy="100"
     cx="100" />
  <g
     id="g20">
    <path
       id="path14"
       stroke-width="0.3279"
       fill="#f2ece6"
       d="M 100,190 A 90,90 0 0 1 22.06,145 90,90 0 0 1 22.06,55 90,90 0 0 1 100,10 v 90 z" />
    <path
       id="path16"
       stroke-width="0.2754"
       fill="#a6a29e"
       d="m 100,10 a 65,90 0 0 1 65,90 65,90 0 0 1 -65,90 v -90 z" />
    <path
       id="path18"
       stroke-width="0.2556"
       fill="#f2ece6"
       d="m 99,10 a 56,90 0 0 1 56,90 56,90 0 0 1 -56,90 v -90 z" />
  </g>
</svg>
