<?xml version="1.0" encoding="UTF-8"?>
<svg width="210mm" height="297mm" version="1.1" viewBox="0 0 210 297" xmlns="http://www.w3.org/2000/svg" xmlns:cc="http://creativecommons.org/ns#" xmlns:dc="http://purl.org/dc/elements/1.1/" xmlns:rdf="http://www.w3.org/1999/02/22-rdf-syntax-ns#">
 <metadata>
  <rdf:RDF>
   <cc:Work rdf:about="">
    <dc:format>image/svg+xml</dc:format>
    <dc:type rdf:resource="http://purl.org/dc/dcmitype/StillImage"/>
    <dc:title/>
   </cc:Work>
  </rdf:RDF>
 </metadata>
 <circle cx="100" cy="100" r="100" stroke-width=".4235"/>
 <g>
  <path d="m100 190a90 90 0 0 1-77.94-45 90 90 0 0 1 0-90 90 90 0 0 1 77.94-45v90z" fill="#f2ece6" stroke-width=".3279"/>
  <path d="m100 10a65 90 0 0 1 65 90 65 90 0 0 1-65 90v-90z" fill="#a6a29e" stroke-width=".2754"/>
  <path d="m99 10a56 90 0 0 1 56 90 56 90 0 0 1-56 90v-90z" fill="#f2ece6" stroke-width=".2556"/>
 </g>
</svg>
